<svg xmlns="http://www.w3.org/2000/svg" xmlns:xlink="http://www.w3.org/1999/xlink" width="512" zoomAndPan="magnify" viewBox="0 0 384 383.999986" height="512" preserveAspectRatio="xMidYMid meet" version="1.0"><path fill="#ffffff" d="M 116.585938 17.296875 L 20.871094 80.417969 L 20.871094 303.550781 L 116.585938 366.691406 L 192.953125 315.050781 L 269.445312 366.691406 L 363.132812 303.441406 L 363.132812 80.546875 L 269.445312 17.296875 L 192.953125 68.917969 Z M 116.585938 17.296875 " fill-opacity="1" fill-rule="nonzero"/><path fill="#4c7380" d="M 116.480469 242.65625 L 177.660156 284.71875 L 116.480469 326.800781 Z M 345.9375 89.691406 L 269.445312 38.050781 L 192.953125 89.691406 L 116.480469 38.050781 L 38.082031 89.691406 L 38.082031 294.296875 L 116.480469 345.921875 L 192.953125 294.296875 L 269.445312 345.921875 L 345.9375 294.296875 Z M 269.445312 160.433594 L 269.445312 57.1875 L 328.722656 97.328125 L 328.722656 282.816406 L 53.375 99.25 L 116.480469 57.1875 Z M 269.445312 160.433594 " fill-opacity="1" fill-rule="nonzero"/></svg>