<svg xmlns="http://www.w3.org/2000/svg" xmlns:xlink="http://www.w3.org/1999/xlink" width="512" zoomAndPan="magnify" viewBox="0 0 384 383.999986" height="512" preserveAspectRatio="xMidYMid meet" version="1.0"><defs><clipPath id="9d52227ca0"><path d="M 244 0.0234375 L 297 0.0234375 L 297 54 L 244 54 Z M 244 0.0234375 " clip-rule="nonzero"/></clipPath></defs><path stroke-linecap="butt" transform="matrix(1.066582, 0, 0, -1.066582, 0.00352282, 426.592142)" fill="none" stroke-linejoin="miter" d="M 79.609954 37.303702 L 81.95389 37.303702 L 79.37556 26.093094 C 81.485103 27.73385 83.829039 29.180498 86.524566 29.063301 C 88.553535 28.982728 90.428684 27.341973 89.76579 24.100749 L 87.070263 11.014993 L 84.297826 11.014993 L 86.876156 23.672248 C 87.304657 25.741504 86.484279 27.616653 84.960721 27.305349 C 81.638924 26.642454 78.866487 24.141035 78.243879 20.936435 L 76.328443 11.249386 L 73.673203 11.366583 Z M 79.609954 37.303702 " stroke="#231f20" stroke-width="2.16" stroke-opacity="1" stroke-miterlimit="2.613"/><path stroke-linecap="butt" transform="matrix(1.066582, 0, 0, -1.066582, 0.00352282, 426.592142)" fill="none" stroke-linejoin="miter" d="M 238.865767 35.703233 L 238.360355 33.787797 C 234.100984 34.842569 231.837621 33.124903 231.48603 28.711711 L 235.313238 28.711711 L 234.804165 26.290864 L 230.742563 26.290864 C 229.295915 13.476126 226.834782 5.898619 222.77318 3.008986 L 221.289908 5.078242 C 225.07683 8.242556 227.384142 15.625954 228.55611 26.173667 L 226.329371 26.173667 L 226.717585 28.828907 L 229.530308 28.828907 C 229.687792 34.842569 232.811819 37.109594 238.865767 35.703233 Z M 238.865767 35.703233 " stroke="#231f20" stroke-width="2.16" stroke-opacity="1" stroke-miterlimit="2.613"/><g clip-path="url(#9d52227ca0)"><path fill="#4c7380" d="M 270.398438 0.0859375 C 284.6875 0.0859375 296.3125 12.125 296.3125 26.957031 C 296.3125 41.789062 284.6875 53.832031 270.398438 53.832031 C 256.109375 53.832031 244.527344 41.789062 244.527344 26.957031 C 244.527344 12.125 256.109375 0.0859375 270.398438 0.0859375 " fill-opacity="1" fill-rule="evenodd"/></g><path fill="#4c7380" d="M 268.105469 115.949219 C 284.0625 115.949219 297.023438 128.949219 297.023438 144.949219 C 297.023438 160.988281 284.0625 173.988281 268.105469 173.988281 C 252.109375 173.988281 239.152344 160.988281 239.152344 144.949219 C 239.152344 128.949219 252.109375 115.949219 268.105469 115.949219 " fill-opacity="1" fill-rule="evenodd"/><path fill="#4c7380" d="M 119.617188 136.90625 C 138.117188 136.90625 153.074219 152.488281 153.074219 171.695312 C 153.074219 190.945312 138.117188 206.527344 119.617188 206.527344 C 101.164062 206.527344 86.164062 190.945312 86.164062 171.695312 C 86.164062 152.488281 101.164062 136.90625 119.617188 136.90625 " fill-opacity="1" fill-rule="evenodd"/><path fill="#4c7380" d="M 146.324219 29.75 C 160.78125 29.75 174.28125 41.289062 174.574219 58.578125 C 174.65625 62.289062 173.949219 65.539062 172.988281 68.578125 C 163.117188 72.785156 155.117188 79.746094 147.910156 87.953125 C 133.367188 89.117188 121.160156 79.121094 117.996094 66.664062 C 113.203125 47.707031 126.492188 29.75 146.324219 29.75 " fill-opacity="1" fill-rule="evenodd"/><path fill="#4c7380" d="M 238.359375 32.75 C 240.359375 44.746094 247.816406 52.582031 257.273438 57.664062 C 257.023438 65.039062 253.359375 72.953125 246.066406 77.953125 C 235.152344 68.453125 224.277344 63.789062 210.152344 62.414062 C 208.988281 52.582031 210.238281 42.707031 218.945312 36.75 C 224.234375 33.125 229.859375 30.875 238.359375 32.75 " fill-opacity="1" fill-rule="evenodd"/><path fill="#4c7380" d="M 140.199219 135.742188 C 138.242188 62.371094 232.402344 42.164062 260.316406 109.117188 C 228.320312 121.242188 224.277344 152.695312 247.484375 173.402344 C 232.984375 188.320312 218.777344 194.277344 202.195312 193.984375 C 184.03125 193.609375 170.574219 187.402344 158.824219 177.152344 C 161.699219 158.78125 154.242188 145.53125 140.199219 135.742188 " fill-opacity="1" fill-rule="evenodd"/><path fill="#4c7380" d="M 186.738281 198.152344 C 196.820312 201.109375 206.945312 201.234375 217.027344 199.402344 C 242.109375 217.484375 229.902344 254.730469 199.28125 254.273438 C 169.15625 251.105469 162.90625 212.691406 186.738281 198.152344 " fill-opacity="1" fill-rule="evenodd"/><path fill="#4c7380" d="M 23.625 299.851562 L 67.664062 299.851562 C 71.121094 299.851562 73.871094 301.519531 73.871094 305.308594 C 73.914062 308.933594 71.332031 311.019531 67.164062 311.019531 L 24.085938 311.019531 C 13.210938 311.019531 13.417969 326.226562 24.792969 326.226562 L 56.625 326.226562 C 82.832031 326.226562 81.664062 364.054688 57.164062 364.054688 L 12.792969 364.054688 C 9.753906 364.054688 7.128906 361.847656 7.042969 359.054688 C 6.917969 354.847656 9.628906 353.015625 13.542969 353.015625 L 56.164062 353.015625 C 61.414062 353.015625 65.207031 350.347656 65.039062 345.015625 C 64.875 339.265625 60.957031 337.640625 56.875 337.640625 L 24.335938 337.640625 C 0.0859375 337.640625 -0.664062 299.851562 23.625 299.851562 " fill-opacity="1" fill-rule="evenodd"/><path fill="#4c7380" d="M 185.78125 299.851562 L 229.820312 299.851562 C 233.277344 299.851562 236.027344 301.519531 236.066406 305.308594 C 236.066406 308.933594 233.527344 311.019531 229.359375 311.019531 L 186.238281 311.019531 C 175.40625 311.019531 175.574219 326.226562 186.945312 326.226562 L 218.820312 326.226562 C 244.984375 326.226562 243.859375 364.054688 219.320312 364.054688 L 174.988281 364.054688 C 171.949219 364.054688 169.324219 361.847656 169.238281 359.054688 C 169.113281 354.847656 171.824219 353.015625 175.699219 353.015625 L 218.320312 353.015625 C 223.609375 353.015625 227.359375 350.347656 227.195312 345.015625 C 227.027344 339.265625 223.109375 337.640625 219.070312 337.640625 L 186.53125 337.640625 C 162.28125 337.640625 161.53125 299.851562 185.78125 299.851562 " fill-opacity="1" fill-rule="evenodd"/><path fill="#4c7380" d="M 102.285156 299.933594 L 138.785156 299.933594 C 149.242188 299.933594 157.242188 307.476562 157.242188 320.101562 L 157.242188 355.054688 C 157.242188 360.972656 154.03125 363.972656 148.574219 363.972656 L 103.703125 363.972656 C 79.996094 363.972656 80.121094 326.308594 104.121094 326.308594 L 146.449219 326.308594 L 146.449219 318.558594 C 146.449219 313.894531 142.992188 310.476562 138.785156 310.519531 L 102.410156 310.644531 C 98.914062 310.644531 96.953125 308.394531 97.039062 305.433594 C 97.121094 301.394531 99.371094 299.933594 102.285156 299.933594 Z M 146.035156 337.433594 L 146.035156 352.804688 L 104.121094 352.804688 C 94.246094 352.804688 93.871094 337.597656 104.996094 337.597656 L 146.035156 337.433594 " fill-opacity="1" fill-rule="evenodd"/><path fill="#4c7380" d="M 267.648438 299.769531 L 301.019531 299.769531 C 311.480469 299.769531 320.0625 308.144531 320.0625 318.390625 L 320.0625 345.265625 C 320.0625 355.515625 311.480469 363.929688 301.019531 363.929688 L 267.648438 363.929688 C 257.191406 363.929688 248.609375 355.515625 248.609375 345.265625 L 248.609375 318.390625 C 248.609375 308.144531 257.191406 299.769531 267.648438 299.769531 Z M 267.230469 310.976562 L 301.230469 310.976562 C 305.480469 310.976562 308.9375 314.183594 308.9375 318.101562 L 308.9375 345.765625 C 308.9375 349.679688 305.480469 352.890625 301.230469 352.890625 L 267.230469 352.890625 C 263.023438 352.890625 259.566406 349.679688 259.566406 345.765625 L 259.566406 318.101562 C 259.566406 314.183594 263.023438 310.976562 267.230469 310.976562 " fill-opacity="1" fill-rule="evenodd"/><path fill="#4c7380" d="M 335.851562 299.769531 C 339.101562 299.5625 341.769531 300.976562 341.769531 305.644531 L 341.769531 344.347656 C 341.769531 349.390625 344.683594 352.890625 352.183594 352.890625 L 372.183594 352.890625 C 379.597656 352.890625 378.722656 363.972656 372.183594 363.972656 L 348.308594 363.972656 C 337.058594 363.972656 330.894531 354.054688 330.894531 344.808594 L 330.894531 305.101562 C 330.894531 301.808594 333.144531 299.976562 335.851562 299.769531 " fill-opacity="1" fill-rule="evenodd"/></svg>