<svg xmlns="http://www.w3.org/2000/svg" xmlns:xlink="http://www.w3.org/1999/xlink" width="512" zoomAndPan="magnify" viewBox="0 0 384 383.999986" height="512" preserveAspectRatio="xMidYMid meet" version="1.0"><defs><clipPath id="57239ecb0d"><path d="M 12.285156 12.285156 L 371.535156 12.285156 L 371.535156 371.535156 L 12.285156 371.535156 Z M 12.285156 12.285156 " clip-rule="nonzero"/></clipPath></defs><g clip-path="url(#57239ecb0d)"><rect x="-38.4" width="460.8" fill="#ffffff" y="-38.399999" height="460.799983" fill-opacity="1"/><path stroke-linecap="butt" transform="matrix(0.0694065, 0, 0, -0.0694065, -99.856809, 395.372282)" fill="none" stroke-linejoin="miter" d="M 0.0193086 -2.796915 L 8418.894035 -2.796915 L 8418.894035 5950.02238 L 0.0193086 5950.02238 Z M 0.0193086 -2.796915 " stroke="#231f20" stroke-width="5.669" stroke-opacity="1" stroke-miterlimit="4"/></g><path fill="#4c7380" d="M 192.308594 21.5 C 284.808594 21.5 359.796875 96.484375 359.796875 188.984375 C 359.796875 281.484375 284.808594 356.472656 192.308594 356.472656 C 99.808594 356.472656 24.820312 281.484375 24.820312 188.984375 C 24.820312 96.484375 99.808594 21.5 192.308594 21.5 Z M 192.308594 21.5 " fill-opacity="1" fill-rule="evenodd"/><path fill="#ffffff" d="M 192.304688 41.628906 C 273.6875 41.628906 339.664062 107.605469 339.664062 188.984375 C 339.664062 270.367188 273.6875 336.339844 192.304688 336.339844 C 110.925781 336.339844 44.953125 270.367188 44.953125 188.984375 C 44.953125 107.605469 110.925781 41.628906 192.304688 41.628906 Z M 192.304688 41.628906 " fill-opacity="1" fill-rule="evenodd"/><path fill="#4c7380" d="M 192.304688 63.375 C 261.679688 63.375 317.914062 119.613281 317.914062 188.984375 C 317.914062 258.355469 261.679688 314.59375 192.304688 314.59375 C 122.933594 314.59375 66.699219 258.355469 66.699219 188.984375 C 66.699219 119.613281 122.933594 63.375 192.304688 63.375 Z M 192.304688 63.375 " fill-opacity="1" fill-rule="evenodd"/><path fill="#ffffff" d="M 91.960938 106.539062 L 66.191406 147.546875 L 128.792969 307.074219 L 157.898438 319.839844 L 190.878906 229.394531 L 229.886719 322.109375 L 258.019531 306.765625 L 322.601562 139.871094 L 295.183594 105.261719 L 241.394531 249.214844 L 221.574219 198.816406 L 165.925781 198.839844 L 146.144531 247.066406 Z M 91.960938 106.539062 " fill-opacity="1" fill-rule="evenodd"/><path fill="#ffffff" d="M 160.308594 58.183594 L 126.148438 72.636719 L 166.550781 181.703125 L 224.371094 181.371094 L 262.808594 73.292969 L 228.96875 59.496094 L 194.148438 153.453125 Z M 160.308594 58.183594 " fill-opacity="1" fill-rule="evenodd"/></svg>