<svg xmlns="http://www.w3.org/2000/svg" xmlns:xlink="http://www.w3.org/1999/xlink" width="50" zoomAndPan="magnify" viewBox="0 0 37.5 37.499999" height="50" preserveAspectRatio="xMidYMid meet" version="1.0"><defs><clipPath id="51197cd995"><path d="M 3 0 L 34 0 L 34 37.007812 L 3 37.007812 Z M 3 0 " clip-rule="nonzero"/></clipPath></defs><g clip-path="url(#51197cd995)"><path fill="#4c7380" d="M 18.503906 0.0664062 C 17.492188 0.0664062 16.492188 0.164062 15.503906 0.363281 C 14.511719 0.5625 13.550781 0.855469 12.617188 1.242188 C 11.683594 1.628906 10.796875 2.101562 9.957031 2.664062 C 9.117188 3.226562 8.339844 3.863281 7.625 4.578125 C 6.910156 5.292969 6.273438 6.066406 5.710938 6.90625 C 5.152344 7.746094 4.675781 8.632812 4.289062 9.566406 C 3.902344 10.5 3.609375 11.460938 3.410156 12.453125 C 3.214844 13.441406 3.113281 14.441406 3.113281 15.453125 C 3.113281 19.417969 6.179688 25.617188 12.234375 33.886719 C 12.414062 34.132812 12.605469 34.367188 12.8125 34.589844 C 13.019531 34.8125 13.238281 35.023438 13.472656 35.21875 C 13.703125 35.417969 13.945312 35.601562 14.199219 35.769531 C 14.453125 35.9375 14.714844 36.089844 14.988281 36.230469 C 15.257812 36.367188 15.535156 36.488281 15.824219 36.59375 C 16.109375 36.699219 16.398438 36.785156 16.695312 36.859375 C 16.992188 36.929688 17.289062 36.980469 17.59375 37.019531 C 17.894531 37.054688 18.199219 37.070312 18.503906 37.070312 C 18.808594 37.070312 19.109375 37.054688 19.414062 37.019531 C 19.714844 36.980469 20.015625 36.929688 20.3125 36.859375 C 20.605469 36.785156 20.898438 36.699219 21.183594 36.59375 C 21.46875 36.488281 21.75 36.367188 22.019531 36.230469 C 22.289062 36.089844 22.554688 35.9375 22.808594 35.769531 C 23.058594 35.601562 23.300781 35.417969 23.535156 35.21875 C 23.765625 35.023438 23.984375 34.8125 24.191406 34.589844 C 24.398438 34.367188 24.59375 34.132812 24.773438 33.886719 C 30.824219 25.617188 33.894531 19.417969 33.894531 15.453125 C 33.890625 14.441406 33.792969 13.441406 33.59375 12.453125 C 33.398438 11.460938 33.105469 10.5 32.71875 9.566406 C 32.328125 8.632812 31.855469 7.746094 31.292969 6.90625 C 30.734375 6.066406 30.09375 5.292969 29.378906 4.578125 C 28.664062 3.863281 27.890625 3.226562 27.050781 2.664062 C 26.210938 2.101562 25.324219 1.628906 24.390625 1.242188 C 23.457031 0.855469 22.496094 0.5625 21.503906 0.363281 C 20.515625 0.164062 19.511719 0.0664062 18.503906 0.0664062 Z M 18.503906 21.585938 C 18.097656 21.585938 17.695312 21.546875 17.300781 21.46875 C 16.902344 21.390625 16.515625 21.273438 16.144531 21.117188 C 15.769531 20.960938 15.414062 20.773438 15.078125 20.546875 C 14.738281 20.324219 14.429688 20.066406 14.140625 19.78125 C 13.855469 19.496094 13.601562 19.183594 13.375 18.847656 C 13.148438 18.507812 12.960938 18.152344 12.804688 17.78125 C 12.648438 17.40625 12.53125 17.019531 12.453125 16.621094 C 12.375 16.226562 12.335938 15.824219 12.335938 15.417969 C 12.335938 15.015625 12.375 14.613281 12.453125 14.214844 C 12.53125 13.820312 12.648438 13.433594 12.804688 13.058594 C 12.960938 12.683594 13.148438 12.328125 13.375 11.992188 C 13.601562 11.65625 13.855469 11.34375 14.140625 11.058594 C 14.429688 10.773438 14.738281 10.515625 15.078125 10.292969 C 15.414062 10.066406 15.769531 9.875 16.144531 9.722656 C 16.515625 9.566406 16.902344 9.449219 17.300781 9.371094 C 17.695312 9.292969 18.097656 9.25 18.503906 9.25 C 18.910156 9.25 19.308594 9.292969 19.707031 9.371094 C 20.105469 9.449219 20.488281 9.566406 20.863281 9.722656 C 21.238281 9.875 21.59375 10.066406 21.929688 10.292969 C 22.265625 10.515625 22.578125 10.773438 22.863281 11.058594 C 23.152344 11.34375 23.40625 11.65625 23.632812 11.992188 C 23.855469 12.328125 24.046875 12.683594 24.203125 13.058594 C 24.355469 13.433594 24.472656 13.820312 24.550781 14.214844 C 24.632812 14.613281 24.671875 15.015625 24.671875 15.417969 C 24.671875 15.824219 24.632812 16.226562 24.550781 16.621094 C 24.472656 17.019531 24.355469 17.40625 24.203125 17.78125 C 24.046875 18.152344 23.855469 18.507812 23.632812 18.847656 C 23.40625 19.183594 23.152344 19.496094 22.863281 19.78125 C 22.578125 20.066406 22.265625 20.324219 21.929688 20.546875 C 21.59375 20.773438 21.238281 20.960938 20.863281 21.117188 C 20.488281 21.273438 20.105469 21.390625 19.707031 21.46875 C 19.308594 21.546875 18.910156 21.585938 18.503906 21.585938 Z M 18.503906 21.585938 " fill-opacity="1" fill-rule="nonzero"/></g></svg>