<svg xmlns="http://www.w3.org/2000/svg" xmlns:xlink="http://www.w3.org/1999/xlink" width="50" zoomAndPan="magnify" viewBox="0 0 37.5 37.499999" height="50" preserveAspectRatio="xMidYMid meet" version="1.0"><defs><clipPath id="55c7dda100"><path d="M 0 0 L 37.007812 0 L 37.007812 37.007812 L 0 37.007812 Z M 0 0 " clip-rule="nonzero"/></clipPath></defs><g clip-path="url(#55c7dda100)"><path fill="#4c7380" d="M 32.378906 19.242188 C 32.378906 15.792969 29.929688 12.800781 26.554688 12.125 C 24.878906 11.792969 23.503906 10.722656 22.785156 9.195312 C 21.210938 5.878906 17.6875 4.101562 14.03125 4.769531 C 10.832031 5.355469 8.222656 8.011719 7.6875 11.234375 C 7.523438 12.21875 7.53125 13.199219 7.71875 14.144531 C 8.054688 15.886719 7.414062 17.746094 6.039062 18.996094 C 5.128906 19.820312 4.628906 20.953125 4.628906 22.183594 C 4.628906 22.382812 4.644531 22.582031 4.671875 22.777344 C 4.871094 24.039062 4.003906 25.222656 2.742188 25.417969 C 1.507812 25.617188 0.292969 24.753906 0.101562 23.488281 C -0.351562 20.578125 0.742188 17.546875 2.925781 15.570312 C 3.105469 15.410156 3.207031 15.1875 3.175781 15.027344 C 2.886719 13.535156 2.867188 12.007812 3.121094 10.476562 C 3.984375 5.285156 8.03125 1.164062 13.195312 0.214844 C 18.859375 -0.808594 24.519531 2.058594 26.964844 7.214844 C 27.058594 7.410156 27.234375 7.542969 27.460938 7.589844 C 32.992188 8.695312 37.007812 13.59375 37.007812 19.242188 C 37.007812 20.515625 35.96875 21.554688 34.695312 21.554688 C 33.417969 21.554688 32.378906 20.515625 32.378906 19.242188 Z M 29.296875 19.273438 L 29.296875 23.898438 C 29.296875 26.03125 27.570312 27.753906 25.441406 27.753906 C 23.3125 27.753906 21.585938 26.03125 21.585938 23.898438 L 21.585938 19.273438 C 21.585938 17.144531 23.3125 15.417969 25.441406 15.417969 C 27.570312 15.417969 29.296875 17.144531 29.296875 19.273438 Z M 26.828125 19.273438 C 26.828125 18.507812 26.207031 17.886719 25.441406 17.886719 C 24.675781 17.886719 24.054688 18.507812 24.054688 19.273438 L 24.054688 23.898438 C 24.054688 24.664062 24.675781 25.289062 25.441406 25.289062 C 26.207031 25.289062 26.828125 24.664062 26.828125 23.898438 Z M 16.09375 17.894531 C 16.667969 17.855469 17.179688 18.171875 17.425781 18.648438 C 17.628906 19.046875 18.054688 19.277344 18.5 19.277344 C 19.4375 19.277344 20.027344 18.28125 19.585938 17.457031 C 18.949219 16.269531 17.703125 15.453125 16.265625 15.425781 C 14.105469 15.386719 12.335938 17.207031 12.335938 19.367188 L 12.335938 23.816406 C 12.335938 25.976562 14.105469 27.796875 16.265625 27.757812 C 17.703125 27.730469 18.949219 26.914062 19.585938 25.726562 C 20.027344 24.902344 19.4375 23.90625 18.5 23.90625 C 18.054688 23.90625 17.628906 24.136719 17.425781 24.535156 C 17.179688 25.011719 16.671875 25.328125 16.09375 25.289062 C 15.355469 25.238281 14.800781 24.59375 14.800781 23.855469 L 14.800781 19.328125 C 14.800781 18.589844 15.355469 17.945312 16.09375 17.894531 Z M 37.007812 26.214844 C 37.007812 24.472656 35.566406 23.070312 33.808594 23.128906 C 32.375 23.179688 31.214844 24.238281 30.914062 25.597656 C 30.910156 25.609375 30.90625 25.628906 30.90625 25.644531 C 30.816406 26.214844 31.265625 26.726562 31.839844 26.726562 C 32.390625 26.726562 32.855469 26.347656 32.996094 25.816406 C 33.003906 25.789062 33.011719 25.765625 33.015625 25.75 C 33.1875 25.425781 33.507812 25.195312 33.890625 25.1875 C 34.472656 25.167969 34.949219 25.632812 34.949219 26.214844 C 34.949219 27.753906 30.835938 29.050781 30.835938 31.371094 C 30.835938 31.929688 31.289062 32.378906 31.84375 32.378906 L 35.996094 32.378906 C 36.554688 32.378906 37.003906 31.929688 37.003906 31.371094 L 37.003906 31.332031 C 37.003906 30.777344 36.554688 30.324219 35.996094 30.324219 L 33.921875 30.324219 C 34.808594 29.515625 37.003906 28.40625 37.003906 26.214844 Z M 13.203125 29.296875 L 10.792969 29.296875 L 10.792969 25.441406 C 10.792969 24.164062 9.757812 23.128906 8.480469 23.128906 C 7.203125 23.128906 6.167969 24.164062 6.167969 25.441406 L 6.167969 29.296875 L 3.757812 29.296875 C 2.425781 29.296875 1.761719 30.90625 2.703125 31.847656 L 7.425781 36.570312 C 8.007812 37.152344 8.953125 37.152344 9.535156 36.570312 L 14.257812 31.847656 C 15.199219 30.90625 14.53125 29.296875 13.203125 29.296875 Z M 13.203125 29.296875 " fill-opacity="1" fill-rule="nonzero"/></g></svg>