<svg xmlns="http://www.w3.org/2000/svg" xmlns:xlink="http://www.w3.org/1999/xlink" width="50" zoomAndPan="magnify" viewBox="0 0 37.5 37.499999" height="50" preserveAspectRatio="xMidYMid meet" version="1.0"><defs><clipPath id="cde9336f1b"><path d="M 0 8 L 37 8 L 37 29.210938 L 0 29.210938 Z M 0 8 " clip-rule="nonzero"/></clipPath></defs><g clip-path="url(#cde9336f1b)"><path fill="#2b4147" d="M 35.792969 13.222656 L 20.644531 28.371094 C 20.054688 28.960938 19.277344 29.257812 18.503906 29.257812 C 17.726562 29.257812 16.953125 28.960938 16.359375 28.371094 L 1.214844 13.222656 C 0.03125 12.039062 0.03125 10.121094 1.214844 8.9375 C 2.398438 7.753906 4.3125 7.753906 5.496094 8.9375 L 18.503906 21.945312 L 31.507812 8.9375 C 32.691406 7.753906 34.609375 7.753906 35.792969 8.9375 C 36.976562 10.121094 36.976562 12.039062 35.792969 13.222656 Z M 35.792969 13.222656 " fill-opacity="1" fill-rule="nonzero"/></g></svg>