<svg xmlns="http://www.w3.org/2000/svg" xmlns:xlink="http://www.w3.org/1999/xlink" width="50" zoomAndPan="magnify" viewBox="0 0 37.5 37.499999" height="50" preserveAspectRatio="xMidYMid meet" version="1.0"><defs><clipPath id="3589dd853a"><path d="M 0 8 L 37.007812 8 L 37.007812 36 L 0 36 Z M 0 8 " clip-rule="nonzero"/></clipPath></defs><g clip-path="url(#3589dd853a)"><path fill="#4c7380" d="M 36.9375 8.546875 L 23.957031 21.527344 C 23.597656 21.882812 23.207031 22.203125 22.785156 22.484375 C 22.367188 22.761719 21.921875 23 21.453125 23.195312 C 20.984375 23.386719 20.503906 23.535156 20.007812 23.632812 C 19.511719 23.730469 19.007812 23.78125 18.503906 23.78125 C 17.996094 23.78125 17.496094 23.730469 17 23.632812 C 16.503906 23.535156 16.019531 23.386719 15.554688 23.195312 C 15.085938 23 14.640625 22.761719 14.21875 22.484375 C 13.800781 22.203125 13.410156 21.882812 13.050781 21.527344 L 0.0703125 8.546875 C 0.0507812 8.789062 0 9.007812 0 9.25 L 0 27.753906 C 0 28.261719 0.0507812 28.761719 0.148438 29.257812 C 0.25 29.753906 0.394531 30.238281 0.589844 30.703125 C 0.785156 31.171875 1.019531 31.617188 1.300781 32.035156 C 1.582031 32.457031 1.902344 32.847656 2.261719 33.203125 C 2.617188 33.5625 3.007812 33.882812 3.429688 34.164062 C 3.847656 34.445312 4.292969 34.679688 4.761719 34.875 C 5.226562 35.070312 5.710938 35.214844 6.207031 35.316406 C 6.703125 35.414062 7.203125 35.464844 7.710938 35.464844 L 29.296875 35.464844 C 29.804688 35.464844 30.304688 35.414062 30.800781 35.316406 C 31.296875 35.214844 31.777344 35.070312 32.246094 34.875 C 32.714844 34.679688 33.15625 34.445312 33.578125 34.164062 C 34 33.882812 34.386719 33.5625 34.746094 33.203125 C 35.105469 32.847656 35.421875 32.457031 35.703125 32.035156 C 35.984375 31.617188 36.222656 31.171875 36.417969 30.703125 C 36.609375 30.238281 36.757812 29.753906 36.855469 29.257812 C 36.957031 28.761719 37.007812 28.261719 37.007812 27.753906 L 37.007812 9.25 C 37.007812 9.007812 36.957031 8.789062 36.9375 8.546875 Z M 36.9375 8.546875 " fill-opacity="1" fill-rule="nonzero"/></g><path fill="#4c7380" d="M 21.773438 19.34375 L 35.859375 5.257812 C 35.519531 4.695312 35.109375 4.179688 34.636719 3.71875 C 34.164062 3.257812 33.640625 2.867188 33.066406 2.539062 C 32.492188 2.214844 31.882812 1.96875 31.246094 1.796875 C 30.605469 1.628906 29.957031 1.542969 29.296875 1.542969 L 7.710938 1.542969 C 7.050781 1.542969 6.398438 1.628906 5.761719 1.796875 C 5.121094 1.96875 4.515625 2.214844 3.941406 2.539062 C 3.367188 2.867188 2.84375 3.257812 2.367188 3.71875 C 1.894531 4.179688 1.488281 4.695312 1.148438 5.257812 L 15.230469 19.34375 C 15.445312 19.558594 15.679688 19.75 15.933594 19.917969 C 16.1875 20.085938 16.453125 20.230469 16.734375 20.34375 C 17.015625 20.460938 17.304688 20.550781 17.601562 20.609375 C 17.898438 20.667969 18.199219 20.695312 18.503906 20.695312 C 18.808594 20.695312 19.109375 20.667969 19.40625 20.609375 C 19.703125 20.550781 19.992188 20.460938 20.273438 20.34375 C 20.554688 20.230469 20.820312 20.085938 21.074219 19.917969 C 21.328125 19.75 21.558594 19.558594 21.773438 19.34375 Z M 21.773438 19.34375 " fill-opacity="1" fill-rule="nonzero"/></svg>