<svg xmlns="http://www.w3.org/2000/svg" xmlns:xlink="http://www.w3.org/1999/xlink" width="50" zoomAndPan="magnify" viewBox="0 0 37.5 37.499999" height="50" preserveAspectRatio="xMidYMid meet" version="1.0"><defs><clipPath id="d877d9ae63"><path d="M 0 0 L 37.007812 0 L 37.007812 37 L 0 37 Z M 0 0 " clip-rule="nonzero"/></clipPath></defs><g clip-path="url(#d877d9ae63)"><path fill="#4c7380" d="M 37.007812 18.617188 C 37.007812 27.851562 30.230469 35.507812 21.386719 36.894531 L 21.386719 24 L 25.6875 24 L 26.507812 18.664062 L 21.386719 18.664062 L 21.386719 15.203125 C 21.386719 13.742188 22.101562 12.320312 24.394531 12.320312 L 26.71875 12.320312 L 26.71875 7.777344 C 26.71875 7.777344 24.609375 7.417969 22.589844 7.417969 C 18.375 7.417969 15.621094 9.972656 15.621094 14.597656 L 15.621094 18.664062 L 10.933594 18.664062 L 10.933594 24 L 15.621094 24 L 15.621094 36.894531 C 6.777344 35.503906 0 27.847656 0 18.617188 C 0 8.398438 8.285156 0.113281 18.503906 0.113281 C 28.722656 0.113281 37.007812 8.394531 37.007812 18.617188 Z M 37.007812 18.617188 " fill-opacity="1" fill-rule="nonzero"/></g></svg>