<svg xmlns="http://www.w3.org/2000/svg" xmlns:xlink="http://www.w3.org/1999/xlink" width="50" zoomAndPan="magnify" viewBox="0 0 37.5 37.499999" height="50" preserveAspectRatio="xMidYMid meet" version="1.0"><defs><clipPath id="db7b265a6e"><path d="M 0 0 L 37.007812 0 L 37.007812 37.007812 L 0 37.007812 Z M 0 0 " clip-rule="nonzero"/></clipPath></defs><g clip-path="url(#db7b265a6e)"><path fill="#4c7380" d="M 36.988281 12.273438 C 36.8125 14.007812 36.046875 19.746094 33.414062 22.378906 C 30.980469 24.796875 27.292969 25.335938 24.285156 23.78125 C 24.242188 23.761719 24.070312 23.636719 23.855469 23.472656 C 24.144531 22.925781 24.488281 22.410156 24.9375 21.960938 L 30.386719 16.507812 C 30.988281 15.90625 30.988281 14.929688 30.386719 14.328125 C 29.785156 13.726562 28.808594 13.726562 28.207031 14.328125 L 22.757812 19.777344 C 22.300781 20.234375 21.898438 20.734375 21.554688 21.261719 C 21.261719 20.882812 20.976562 20.511719 20.945312 20.449219 C 19.371094 17.402344 19.929688 13.730469 22.335938 11.304688 C 24.953125 8.691406 30.71875 7.90625 32.425781 7.730469 L 32.429688 7.730469 C 33.664062 7.597656 34.890625 8.035156 35.78125 8.921875 C 36.671875 9.808594 37.109375 11.027344 36.988281 12.269531 Z M 21.550781 21.261719 C 20.574219 22.753906 20.046875 24.496094 20.046875 26.324219 L 20.046875 29.296875 C 20.046875 31.847656 17.96875 33.921875 15.417969 33.921875 C 12.867188 33.921875 10.792969 31.847656 10.792969 29.296875 L 10.792969 19.890625 C 14.308594 19.171875 16.960938 16.058594 16.960938 12.335938 L 16.960938 9.25 C 17.8125 9.25 18.503906 8.5625 18.503906 7.710938 C 18.503906 6.859375 17.8125 6.167969 16.960938 6.167969 L 13.878906 6.167969 L 13.878906 1.542969 C 13.878906 0.691406 13.1875 0 12.335938 0 C 11.484375 0 10.792969 0.691406 10.792969 1.542969 L 10.792969 6.167969 L 7.710938 6.167969 L 7.710938 1.542969 C 7.710938 0.691406 7.019531 0 6.167969 0 C 5.316406 0 4.625 0.691406 4.625 1.542969 L 4.625 6.167969 L 1.542969 6.167969 C 0.6875 6.167969 0 6.859375 0 7.710938 C 0 8.5625 0.6875 9.25 1.542969 9.25 L 1.542969 12.335938 C 1.542969 16.058594 4.195312 19.171875 7.710938 19.890625 L 7.710938 29.296875 C 7.710938 33.546875 11.167969 37.007812 15.417969 37.007812 C 19.671875 37.007812 23.128906 33.546875 23.128906 29.296875 L 23.128906 26.324219 C 23.128906 25.308594 23.398438 24.34375 23.855469 23.472656 C 23.339844 23.078125 21.898438 21.707031 21.550781 21.261719 Z M 21.550781 21.261719 " fill-opacity="1" fill-rule="nonzero"/></g></svg>