<svg xmlns="http://www.w3.org/2000/svg" xmlns:xlink="http://www.w3.org/1999/xlink" width="50" zoomAndPan="magnify" viewBox="0 0 37.5 37.499999" height="50" preserveAspectRatio="xMidYMid meet" version="1.0"><defs><clipPath id="f5ef9bcbdf"><path d="M 0 0 L 37 0 L 37 37.007812 L 0 37.007812 Z M 0 0 " clip-rule="nonzero"/></clipPath></defs><g clip-path="url(#f5ef9bcbdf)"><path fill="#4c7380" d="M 34.539062 2.453125 C 31.746094 -0.332031 26.828125 -1.800781 18.476562 4.007812 C 10.132812 -1.796875 5.207031 -0.332031 2.421875 2.453125 C -0.367188 5.242188 -1.835938 10.160156 3.976562 18.503906 C -1.835938 26.84375 -0.367188 31.765625 2.421875 34.550781 C 3.199219 35.351562 4.101562 35.96875 5.128906 36.394531 C 6.160156 36.824219 7.234375 37.03125 8.347656 37.019531 C 10.96875 37.019531 14.296875 35.941406 18.476562 33.019531 C 22.660156 35.933594 25.984375 37.019531 28.605469 37.019531 C 29.722656 37.035156 30.792969 36.828125 31.824219 36.398438 C 32.855469 35.96875 33.757812 35.355469 34.535156 34.554688 C 37.316406 31.765625 38.789062 26.84375 32.980469 18.503906 C 38.789062 10.160156 37.316406 5.242188 34.539062 2.453125 Z M 28.484375 4.636719 C 29.5625 4.601562 30.488281 4.964844 31.257812 5.726562 C 33.347656 7.816406 32.160156 11.277344 29.988281 14.671875 C 28.902344 13.40625 27.695312 12.089844 26.289062 10.6875 C 24.878906 9.285156 23.570312 8.082031 22.300781 6.996094 C 24.148438 5.648438 26.207031 4.863281 28.484375 4.636719 Z M 27.164062 18.503906 C 25.671875 20.308594 24.144531 21.917969 23.019531 23.042969 C 21.894531 24.167969 20.28125 25.695312 18.476562 27.1875 C 16.671875 25.695312 15.0625 24.167969 13.9375 23.042969 C 12.808594 21.914062 11.28125 20.308594 9.792969 18.503906 C 11.28125 16.699219 12.808594 15.089844 13.9375 13.964844 C 15.0625 12.839844 16.667969 11.308594 18.476562 9.820312 C 20.285156 11.308594 21.890625 12.835938 23.019531 13.964844 C 24.148438 15.089844 25.671875 16.699219 27.164062 18.503906 Z M 5.695312 5.726562 C 6.464844 4.964844 7.390625 4.601562 8.472656 4.636719 C 10.746094 4.863281 12.804688 5.648438 14.648438 6.996094 C 13.382812 8.085938 12.0625 9.289062 10.664062 10.691406 C 9.261719 12.09375 8.054688 13.414062 6.964844 14.675781 C 4.796875 11.277344 3.605469 7.816406 5.695312 5.726562 Z M 5.695312 31.277344 C 3.605469 29.191406 4.796875 25.726562 6.964844 22.335938 C 8.054688 23.601562 9.257812 24.917969 10.664062 26.320312 C 12.074219 27.722656 13.382812 28.941406 14.640625 30.019531 C 11.242188 32.183594 7.785156 33.363281 5.695312 31.277344 Z M 31.257812 31.277344 C 29.167969 33.367188 25.707031 32.183594 22.316406 30.015625 C 23.578125 28.9375 24.898438 27.710938 26.292969 26.316406 C 27.691406 24.921875 28.902344 23.597656 29.996094 22.332031 C 32.160156 25.730469 33.347656 29.191406 31.257812 31.277344 Z M 31.257812 31.277344 " fill-opacity="1" fill-rule="nonzero"/></g><path fill="#4c7380" d="M 21.585938 18.503906 C 21.585938 18.914062 21.507812 19.304688 21.351562 19.683594 C 21.195312 20.0625 20.972656 20.394531 20.683594 20.683594 C 20.394531 20.972656 20.0625 21.195312 19.683594 21.351562 C 19.304688 21.507812 18.914062 21.585938 18.503906 21.585938 C 18.09375 21.585938 17.699219 21.507812 17.324219 21.351562 C 16.945312 21.195312 16.613281 20.972656 16.324219 20.683594 C 16.035156 20.394531 15.8125 20.0625 15.652344 19.683594 C 15.496094 19.304688 15.417969 18.914062 15.417969 18.503906 C 15.417969 18.09375 15.496094 17.699219 15.652344 17.324219 C 15.8125 16.945312 16.035156 16.613281 16.324219 16.324219 C 16.613281 16.035156 16.945312 15.8125 17.324219 15.652344 C 17.699219 15.496094 18.09375 15.417969 18.503906 15.417969 C 18.914062 15.417969 19.304688 15.496094 19.683594 15.652344 C 20.0625 15.8125 20.394531 16.035156 20.683594 16.324219 C 20.972656 16.613281 21.195312 16.945312 21.351562 17.324219 C 21.507812 17.699219 21.585938 18.09375 21.585938 18.503906 Z M 21.585938 18.503906 " fill-opacity="1" fill-rule="nonzero"/></svg>