<svg xmlns="http://www.w3.org/2000/svg" xmlns:xlink="http://www.w3.org/1999/xlink" width="50" zoomAndPan="magnify" viewBox="0 0 37.5 37.499999" height="50" preserveAspectRatio="xMidYMid meet" version="1.0"><defs><clipPath id="bf932102b6"><path d="M 0.316406 0.316406 L 36.582031 0.316406 L 36.582031 36.582031 L 0.316406 36.582031 Z M 0.316406 0.316406 " clip-rule="nonzero"/></clipPath></defs><g clip-path="url(#bf932102b6)"><path fill="#4c7380" d="M 31.433594 31.445312 L 26.023438 31.445312 L 26.023438 22.96875 C 26.023438 20.949219 25.984375 18.347656 23.207031 18.347656 C 20.390625 18.347656 19.957031 20.546875 19.957031 22.824219 L 19.957031 31.445312 L 14.546875 31.445312 L 14.546875 14.015625 L 19.742188 14.015625 L 19.742188 16.398438 L 19.816406 16.398438 C 20.875 14.585938 22.84375 13.503906 24.941406 13.582031 C 30.425781 13.582031 31.4375 17.191406 31.4375 21.882812 Z M 8.441406 11.632812 C 6.707031 11.632812 5.300781 10.226562 5.300781 8.492188 C 5.300781 6.757812 6.707031 5.351562 8.441406 5.351562 C 10.175781 5.351562 11.582031 6.757812 11.582031 8.492188 C 11.582031 10.226562 10.175781 11.632812 8.441406 11.632812 M 11.144531 31.445312 L 5.726562 31.445312 L 5.726562 14.015625 L 11.144531 14.015625 Z M 34.132812 0.328125 L 3.007812 0.328125 C 1.539062 0.3125 0.332031 1.488281 0.316406 2.960938 L 0.316406 34.210938 C 0.332031 35.683594 1.539062 36.863281 3.007812 36.84375 L 34.132812 36.84375 C 35.605469 36.863281 36.816406 35.683594 36.835938 34.210938 L 36.835938 2.957031 C 36.816406 1.484375 35.605469 0.304688 34.132812 0.324219 " fill-opacity="1" fill-rule="nonzero"/></g></svg>