<svg xmlns="http://www.w3.org/2000/svg" xmlns:xlink="http://www.w3.org/1999/xlink" width="50" zoomAndPan="magnify" viewBox="0 0 37.5 37.499999" height="50" preserveAspectRatio="xMidYMid meet" version="1.0"><defs><clipPath id="8fbeb72ddc"><path d="M 0.808594 0 L 36 0 L 36 7 L 0.808594 7 Z M 0.808594 0 " clip-rule="nonzero"/></clipPath><clipPath id="a6a3fdeb5f"><path d="M 0.808594 15 L 28 15 L 28 22 L 0.808594 22 Z M 0.808594 15 " clip-rule="nonzero"/></clipPath><clipPath id="a22ba28424"><path d="M 0.808594 30 L 19 30 L 19 37 L 0.808594 37 Z M 0.808594 30 " clip-rule="nonzero"/></clipPath></defs><g clip-path="url(#8fbeb72ddc)"><path fill="#2b4147" d="M 32.921875 0.175781 L 3.96875 0.175781 C 3.566406 0.175781 3.175781 0.25 2.804688 0.40625 C 2.429688 0.5625 2.101562 0.78125 1.816406 1.066406 C 1.527344 1.351562 1.308594 1.683594 1.152344 2.054688 C 1 2.429688 0.921875 2.816406 0.921875 3.222656 C 0.921875 3.625 1 4.015625 1.152344 4.390625 C 1.308594 4.761719 1.527344 5.09375 1.816406 5.378906 C 2.101562 5.664062 2.429688 5.882812 2.804688 6.039062 C 3.175781 6.191406 3.566406 6.269531 3.96875 6.269531 L 32.921875 6.269531 C 33.328125 6.269531 33.714844 6.191406 34.089844 6.039062 C 34.464844 5.882812 34.792969 5.664062 35.078125 5.378906 C 35.363281 5.09375 35.585938 4.761719 35.738281 4.390625 C 35.894531 4.015625 35.972656 3.625 35.972656 3.222656 C 35.972656 2.816406 35.894531 2.429688 35.738281 2.054688 C 35.585938 1.683594 35.363281 1.351562 35.078125 1.066406 C 34.792969 0.78125 34.464844 0.5625 34.089844 0.40625 C 33.714844 0.25 33.328125 0.175781 32.921875 0.175781 Z M 32.921875 0.175781 " fill-opacity="1" fill-rule="nonzero"/></g><g clip-path="url(#a6a3fdeb5f)"><path fill="#2b4147" d="M 24.4375 15.40625 L 3.988281 15.40625 C 3.582031 15.40625 3.191406 15.484375 2.820312 15.640625 C 2.445312 15.792969 2.117188 16.015625 1.832031 16.300781 C 1.546875 16.585938 1.324219 16.914062 1.171875 17.289062 C 1.015625 17.660156 0.9375 18.050781 0.9375 18.453125 C 0.9375 18.859375 1.015625 19.25 1.171875 19.621094 C 1.324219 19.996094 1.546875 20.324219 1.832031 20.609375 C 2.117188 20.894531 2.445312 21.117188 2.820312 21.269531 C 3.191406 21.425781 3.582031 21.503906 3.988281 21.503906 L 24.4375 21.503906 C 24.84375 21.503906 25.230469 21.425781 25.605469 21.269531 C 25.980469 21.117188 26.308594 20.894531 26.59375 20.609375 C 26.878906 20.324219 27.101562 19.996094 27.253906 19.621094 C 27.410156 19.25 27.488281 18.859375 27.488281 18.453125 C 27.488281 18.050781 27.410156 17.660156 27.253906 17.289062 C 27.101562 16.914062 26.878906 16.585938 26.59375 16.300781 C 26.308594 16.015625 25.980469 15.792969 25.605469 15.640625 C 25.230469 15.484375 24.84375 15.40625 24.4375 15.40625 Z M 24.4375 15.40625 " fill-opacity="1" fill-rule="nonzero"/></g><g clip-path="url(#a22ba28424)"><path fill="#2b4147" d="M 15.300781 30.640625 L 3.988281 30.640625 C 3.582031 30.640625 3.191406 30.71875 2.820312 30.871094 C 2.445312 31.027344 2.117188 31.246094 1.832031 31.53125 C 1.546875 31.816406 1.324219 32.148438 1.171875 32.519531 C 1.015625 32.894531 0.9375 33.285156 0.9375 33.6875 C 0.9375 34.09375 1.015625 34.480469 1.171875 34.855469 C 1.324219 35.226562 1.546875 35.558594 1.832031 35.84375 C 2.117188 36.128906 2.445312 36.347656 2.820312 36.503906 C 3.191406 36.660156 3.582031 36.734375 3.988281 36.734375 L 15.300781 36.734375 C 15.707031 36.734375 16.09375 36.660156 16.46875 36.503906 C 16.84375 36.347656 17.171875 36.128906 17.457031 35.84375 C 17.742188 35.558594 17.964844 35.226562 18.117188 34.855469 C 18.273438 34.480469 18.351562 34.09375 18.351562 33.6875 C 18.351562 33.285156 18.273438 32.894531 18.117188 32.519531 C 17.964844 32.148438 17.742188 31.816406 17.457031 31.53125 C 17.171875 31.246094 16.84375 31.027344 16.46875 30.871094 C 16.09375 30.71875 15.707031 30.640625 15.300781 30.640625 Z M 15.300781 30.640625 " fill-opacity="1" fill-rule="nonzero"/></g></svg>