<svg xmlns="http://www.w3.org/2000/svg" xmlns:xlink="http://www.w3.org/1999/xlink" width="50" zoomAndPan="magnify" viewBox="0 0 37.5 37.499999" height="50" preserveAspectRatio="xMidYMid meet" version="1.0"><defs><clipPath id="e19cba9975"><path d="M 0 3.699219 L 30 3.699219 L 30 10 L 0 10 Z M 0 3.699219 " clip-rule="nonzero"/></clipPath><clipPath id="edecf8f7f3"><path d="M 0.0507812 15.472656 L 36.960938 15.472656 L 36.960938 21.566406 L 0.0507812 21.566406 Z M 0.0507812 15.472656 " clip-rule="nonzero"/></clipPath><clipPath id="561eaa1409"><path d="M 0.0507812 27.382812 L 23 27.382812 L 23 33.304688 L 0.0507812 33.304688 Z M 0.0507812 27.382812 " clip-rule="nonzero"/></clipPath></defs><g clip-path="url(#e19cba9975)"><path fill="#2b4147" d="M 26.25 9.632812 L 3.015625 9.632812 C 1.375 9.632812 0.0507812 8.304688 0.0507812 6.667969 C 0.0507812 5.027344 1.375 3.703125 3.015625 3.703125 L 26.25 3.703125 C 27.886719 3.703125 29.214844 5.027344 29.214844 6.667969 C 29.214844 8.304688 27.886719 9.632812 26.25 9.632812 " fill-opacity="1" fill-rule="nonzero"/></g><g clip-path="url(#edecf8f7f3)"><path fill="#2b4147" d="M 33.992188 21.496094 L 3.015625 21.496094 C 1.375 21.496094 0.0507812 20.167969 0.0507812 18.527344 C 0.0507812 16.890625 1.375 15.5625 3.015625 15.5625 L 33.992188 15.5625 C 35.632812 15.5625 36.957031 16.890625 36.957031 18.527344 C 36.957031 20.167969 35.632812 21.496094 33.992188 21.496094 " fill-opacity="1" fill-rule="nonzero"/></g><g clip-path="url(#561eaa1409)"><path fill="#2b4147" d="M 19.996094 33.359375 L 3.015625 33.359375 C 1.375 33.359375 0.0507812 32.03125 0.0507812 30.390625 C 0.0507812 28.753906 1.375 27.425781 3.015625 27.425781 L 19.996094 27.425781 C 21.636719 27.425781 22.960938 28.753906 22.960938 30.390625 C 22.960938 32.03125 21.636719 33.359375 19.996094 33.359375 " fill-opacity="1" fill-rule="nonzero"/></g></svg>