<svg xmlns="http://www.w3.org/2000/svg" xmlns:xlink="http://www.w3.org/1999/xlink" width="50" zoomAndPan="magnify" viewBox="0 0 37.5 37.499999" height="50" preserveAspectRatio="xMidYMid meet" version="1.0"><defs><clipPath id="5f5cd6d182"><path d="M 0 0 L 37.007812 0 L 37.007812 37.007812 L 0 37.007812 Z M 0 0 " clip-rule="nonzero"/></clipPath></defs><g clip-path="url(#5f5cd6d182)"><path fill="#4c7380" d="M 37.007812 9.621094 C 37.007812 21.402344 21.386719 37.007812 9.621094 37.007812 C 7.046875 37.007812 4.640625 36.035156 2.867188 34.261719 L 1.324219 32.488281 C -0.460938 30.699219 -0.460938 27.679688 1.402344 25.8125 C 1.449219 25.765625 5.164062 22.914062 5.164062 22.914062 C 7.015625 21.15625 9.929688 21.15625 11.765625 22.914062 L 14.015625 24.71875 C 18.949219 22.621094 22.449219 19.105469 24.703125 14 L 22.914062 11.75 C 21.140625 9.914062 21.140625 6.984375 22.914062 5.148438 C 22.914062 5.148438 25.765625 1.433594 25.8125 1.386719 C 27.679688 -0.476562 30.699219 -0.476562 32.566406 1.386719 L 34.183594 2.789062 C 36.035156 4.625 37.007812 7.03125 37.007812 9.605469 Z M 37.007812 9.621094 " fill-opacity="1" fill-rule="nonzero"/></g></svg>