<svg xmlns="http://www.w3.org/2000/svg" xmlns:xlink="http://www.w3.org/1999/xlink" width="50" zoomAndPan="magnify" viewBox="0 0 37.5 37.499999" height="50" preserveAspectRatio="xMidYMid meet" version="1.0"><defs><clipPath id="fa453e3cd1"><path d="M 7.125 0 L 30 0 L 30 37 L 7.125 37 Z M 7.125 0 " clip-rule="nonzero"/></clipPath></defs><g clip-path="url(#fa453e3cd1)"><path fill="#2b4147" d="M 29.132812 16.699219 C 25.875 13.445312 17.84375 5.414062 13.890625 1.460938 C 12.425781 -0.00390625 10.054688 -0.00390625 8.589844 1.460938 C 7.125 2.921875 7.125 5.296875 8.589844 6.761719 L 20.234375 18.40625 C 20.285156 18.457031 20.285156 18.542969 20.234375 18.59375 C 18.449219 20.378906 12.054688 26.773438 8.589844 30.238281 C 7.886719 30.941406 7.492188 31.894531 7.492188 32.890625 C 7.492188 33.886719 7.886719 34.839844 8.589844 35.542969 C 10.054688 37.003906 12.425781 37.003906 13.890625 35.542969 C 17.84375 31.589844 25.875 23.554688 29.132812 20.296875 C 29.609375 19.820312 29.878906 19.175781 29.878906 18.5 C 29.878906 17.824219 29.609375 17.179688 29.132812 16.699219 Z M 29.132812 16.699219 " fill-opacity="1" fill-rule="nonzero"/></g></svg>