<svg xmlns="http://www.w3.org/2000/svg" xmlns:xlink="http://www.w3.org/1999/xlink" width="50" zoomAndPan="magnify" viewBox="0 0 37.5 37.499999" height="50" preserveAspectRatio="xMidYMid meet" version="1.0"><defs><clipPath id="9ea4272acf"><path d="M 0 0 L 37.007812 0 L 37.007812 37.007812 L 0 37.007812 Z M 0 0 " clip-rule="nonzero"/></clipPath></defs><g clip-path="url(#9ea4272acf)"><path fill="#4c7380" d="M 27.753906 35.464844 C 27.753906 36.316406 27.0625 37.007812 26.214844 37.007812 L 10.792969 37.007812 C 9.941406 37.007812 9.25 36.316406 9.25 35.464844 C 9.25 34.613281 9.941406 33.921875 10.792969 33.921875 L 16.960938 33.921875 L 16.960938 27.753906 L 12.917969 27.753906 L 13.691406 15.417969 L 23.316406 15.417969 L 24.085938 27.753906 L 20.046875 27.753906 L 20.046875 33.921875 L 26.214844 33.921875 C 27.0625 33.921875 27.753906 34.613281 27.753906 35.464844 Z M 22.359375 0.09375 C 22.355469 0.0625 22.355469 0.03125 22.355469 0 L 14.652344 0 C 14.652344 0.03125 14.652344 0.0664062 14.648438 0.09375 L 13.882812 12.335938 L 23.121094 12.335938 Z M 36.117188 12.335938 L 35.402344 6.730469 C 34.914062 2.894531 31.625 0 27.753906 0 L 25.441406 0 L 26.214844 12.335938 Z M 36.976562 19.066406 L 36.511719 15.417969 L 26.40625 15.417969 C 26.40625 15.417969 27.171875 27.722656 27.171875 27.753906 L 29.332031 27.753906 C 31.546875 27.753906 33.65625 26.800781 35.117188 25.140625 C 36.578125 23.480469 37.257812 21.265625 36.976562 19.066406 Z M 11.566406 0 L 9.285156 0 C 5.417969 0 2.128906 2.894531 1.640625 6.730469 L 0.921875 12.335938 L 10.792969 12.335938 Z M 10.601562 15.417969 L 0.527344 15.417969 L 0.0625 19.066406 C -0.21875 21.265625 0.460938 23.476562 1.925781 25.140625 C 3.390625 26.800781 5.496094 27.753906 7.710938 27.753906 L 9.835938 27.753906 C 9.835938 27.722656 10.601562 15.417969 10.601562 15.417969 Z M 10.601562 15.417969 " fill-opacity="1" fill-rule="nonzero"/></g></svg>