<svg xmlns="http://www.w3.org/2000/svg" xmlns:xlink="http://www.w3.org/1999/xlink" width="50" zoomAndPan="magnify" viewBox="0 0 37.5 37.499999" height="50" preserveAspectRatio="xMidYMid meet" version="1.0"><defs><clipPath id="6182e701fd"><path d="M 0 0 L 37.007812 0 L 37.007812 37.007812 L 0 37.007812 Z M 0 0 " clip-rule="nonzero"/></clipPath></defs><g clip-path="url(#6182e701fd)"><path fill="#4c7380" d="M 37.007812 28.027344 C 37.007812 32.980469 32.980469 37.007812 28.027344 37.007812 L 26.984375 37.007812 C 25.707031 37.007812 24.671875 35.96875 24.671875 34.695312 C 24.671875 33.417969 25.707031 32.378906 26.984375 32.378906 L 28.027344 32.378906 C 30.429688 32.378906 32.378906 30.425781 32.378906 28.027344 C 32.378906 26.84375 31.90625 25.738281 31.046875 24.90625 C 30.355469 24.234375 30.148438 23.210938 30.527344 22.328125 C 30.734375 21.847656 30.839844 21.339844 30.839844 20.816406 C 30.839844 19.398438 30.039062 18.097656 28.753906 17.425781 C 27.78125 16.914062 27.304688 15.789062 27.609375 14.734375 C 27.707031 14.390625 27.753906 14.121094 27.753906 13.878906 C 27.753906 12.179688 26.371094 10.796875 24.671875 10.796875 L 23.859375 10.796875 C 22.734375 10.796875 21.769531 9.984375 21.578125 8.871094 C 21.378906 7.710938 20.546875 6.472656 19.632812 5.632812 C 18.996094 8.003906 17.71875 9.457031 16.597656 10.316406 C 16.195312 10.625 15.699219 10.796875 15.191406 10.796875 L 12.332031 10.796875 C 10.632812 10.796875 9.25 12.179688 9.25 13.878906 C 9.25 14.121094 9.296875 14.390625 9.394531 14.734375 C 9.699219 15.792969 9.222656 16.914062 8.25 17.425781 C 6.964844 18.101562 6.167969 19.398438 6.167969 20.816406 C 6.167969 21.339844 6.269531 21.847656 6.476562 22.328125 C 6.855469 23.210938 6.648438 24.234375 5.957031 24.90625 C 5.097656 25.738281 4.625 26.847656 4.625 28.027344 C 4.625 30.429688 6.578125 32.378906 8.976562 32.378906 C 10.253906 32.378906 11.289062 33.417969 11.289062 34.695312 C 11.289062 35.96875 10.253906 37.007812 8.976562 37.007812 C 4.027344 37.007812 0 32.980469 0 28.027344 C 0 26.082031 0.613281 24.238281 1.753906 22.703125 C 1.609375 22.089844 1.539062 21.457031 1.539062 20.816406 C 1.539062 18.261719 2.695312 15.886719 4.636719 14.296875 C 4.628906 14.15625 4.625 14.015625 4.625 13.878906 C 4.625 9.625 8.082031 6.167969 12.332031 6.167969 L 14.285156 6.167969 C 15.027344 5.296875 15.417969 3.980469 15.417969 2.3125 C 15.417969 1.035156 16.453125 0 17.730469 0 C 21.101562 0 24.269531 3.003906 25.589844 6.222656 C 29.410156 6.679688 32.378906 9.9375 32.378906 13.878906 C 32.378906 14.015625 32.375 14.15625 32.367188 14.296875 C 34.308594 15.886719 35.464844 18.261719 35.464844 20.816406 C 35.464844 21.457031 35.390625 22.089844 35.25 22.703125 C 36.390625 24.238281 37.003906 26.082031 37.003906 28.027344 Z M 24.042969 24.652344 L 19.273438 24.652344 L 20.710938 20.582031 C 21.101562 19.570312 20.355469 18.484375 19.273438 18.484375 L 16.355469 18.484375 C 15.695312 18.484375 15.109375 18.902344 14.898438 19.523438 L 11.628906 28.988281 C 11.351562 29.898438 12.035156 30.820312 12.988281 30.820312 L 17.734375 30.820312 L 16.25 35.289062 C 15.832031 36.753906 17.785156 37.671875 18.648438 36.421875 L 25.207031 26.820312 C 25.824219 25.894531 25.160156 24.652344 24.046875 24.652344 Z M 24.042969 24.652344 " fill-opacity="1" fill-rule="nonzero"/></g></svg>