<svg xmlns="http://www.w3.org/2000/svg" xmlns:xlink="http://www.w3.org/1999/xlink" width="50" zoomAndPan="magnify" viewBox="0 0 37.5 37.499999" height="50" preserveAspectRatio="xMidYMid meet" version="1.0"><defs><clipPath id="67fce898e9"><path d="M 2 0 L 35 0 L 35 37.007812 L 2 37.007812 Z M 2 0 " clip-rule="nonzero"/></clipPath></defs><g clip-path="url(#67fce898e9)"><path fill="#4c7380" d="M 33.078125 20.136719 C 31.152344 18.597656 27.644531 15.863281 24.558594 13.835938 C 24.117188 10.171875 23.238281 5.808594 22.71875 3.398438 C 22.289062 1.398438 20.554688 0 18.503906 0 C 16.453125 0 14.71875 1.398438 14.289062 3.398438 C 13.773438 5.808594 12.890625 10.167969 12.449219 13.832031 C 9.363281 15.863281 5.855469 18.597656 3.933594 20.132812 C 2.359375 21.390625 1.871094 23.613281 2.773438 25.421875 C 3.6875 27.257812 5.707031 28.183594 7.691406 27.679688 C 9.753906 27.152344 13.125 26.246094 16.214844 25.230469 L 16.214844 32.378906 L 13.109375 32.378906 C 11.832031 32.378906 10.796875 33.414062 10.796875 34.695312 C 10.796875 35.972656 11.832031 37.007812 13.109375 37.007812 L 23.902344 37.007812 C 25.179688 37.007812 26.214844 35.972656 26.214844 34.695312 C 26.214844 33.414062 25.179688 32.378906 23.902344 32.378906 L 20.839844 32.378906 L 20.839844 25.246094 C 23.917969 26.253906 27.269531 27.15625 29.320312 27.679688 C 29.683594 27.773438 30.046875 27.816406 30.402344 27.816406 C 32.007812 27.816406 33.492188 26.925781 34.242188 25.421875 C 35.140625 23.617188 34.65625 21.394531 33.082031 20.132812 Z M 19.355469 19.8125 C 18.808594 19.597656 18.199219 19.597656 17.652344 19.8125 C 14.796875 20.941406 10.789062 22.082031 7.984375 22.824219 C 10.144531 21.128906 13.277344 18.757812 15.851562 17.144531 C 16.460938 16.761719 16.859375 16.121094 16.925781 15.40625 C 17.222656 12.386719 17.949219 8.523438 18.503906 5.832031 C 19.058594 8.523438 19.785156 12.390625 20.078125 15.40625 C 20.148438 16.121094 20.542969 16.761719 21.152344 17.144531 C 23.730469 18.753906 26.863281 21.128906 29.023438 22.824219 C 26.21875 22.082031 22.210938 20.941406 19.355469 19.8125 Z M 19.355469 19.8125 " fill-opacity="1" fill-rule="nonzero"/></g></svg>